<svg width="18" height="18" viewBox="0 0 18 18" fill="none" xmlns="http://www.w3.org/2000/svg">
<path fill-rule="evenodd" clip-rule="evenodd" d="M16.1595 3.83318C16.3704 4.04415 16.4889 4.33024 16.4889 4.62855C16.4889 4.92686 16.3704 5.21296 16.1595 5.42393L7.72727 13.8562C7.61584 13.9676 7.48354 14.0561 7.33793 14.1164C7.19232 14.1767 7.03625 14.2077 6.87864 14.2077C6.72104 14.2077 6.56497 14.1767 6.41936 14.1164C6.27375 14.0561 6.14145 13.9676 6.03002 13.8562L1.84052 9.66743C1.73307 9.56365 1.64737 9.43951 1.58841 9.30226C1.52945 9.165 1.49841 9.01738 1.49711 8.868C1.49581 8.71863 1.52428 8.57049 1.58085 8.43223C1.63741 8.29397 1.72095 8.16836 1.82658 8.06273C1.9322 7.9571 2.05781 7.87357 2.19607 7.817C2.33433 7.76044 2.48247 7.73197 2.63185 7.73327C2.78122 7.73457 2.92885 7.7656 3.0661 7.82456C3.20335 7.88352 3.32749 7.96923 3.43127 8.07668L6.87827 11.5237L14.568 3.83318C14.6725 3.72864 14.7965 3.6457 14.9331 3.58912C15.0696 3.53254 15.216 3.50342 15.3638 3.50342C15.5116 3.50342 15.6579 3.53254 15.7945 3.58912C15.931 3.6457 16.055 3.72864 16.1595 3.83318Z" fill="white"/>
</svg>
